/* XPM */
static char *out[] = {
/* columns rows colors chars-per-pixel */
"64 64 229 2 ",
"   c #000000",
".  c #0A0003",
"X  c #01040B",
"o  c #150804",
"O  c #1C0900",
"+  c #151402",
"@  c #1B1B01",
"#  c #1A1B09",
"$  c #010612",
"%  c #010914",
"&  c #00051B",
"*  c #0C061D",
"=  c #010B1C",
"-  c #1A0D19",
";  c #03121C",
":  c #0D161A",
">  c #0E191D",
",  c #1A1E15",
"<  c #121A1C",
"1  c #18181A",
"2  c #1A1F1A",
"3  c #221505",
"4  c #221C00",
"5  c #221E16",
"6  c #1C200A",
"7  c #17201A",
"8  c #1C221C",
"9  c #242202",
"0  c #2A2301",
"q  c #23220C",
"w  c #232314",
"e  c #23241B",
"r  c #27271A",
"t  c #000024",
"y  c #000E22",
"u  c #050D27",
"i  c #01002B",
"p  c #021324",
"a  c #091622",
"s  c #061A26",
"d  c #01142B",
"f  c #04192C",
"g  c #0D1A28",
"h  c #131D23",
"j  c #181A28",
"k  c #000036",
"l  c #00013E",
"z  c #001734",
"x  c #031B33",
"c  c #0A1D32",
"v  c #071839",
"b  c #011D3B",
"n  c #131A3A",
"m  c #231D20",
"M  c #0F212D",
"N  c #1B2122",
"B  c #15222A",
"V  c #13222D",
"C  c #0B2139",
"Z  c #0E233A",
"A  c #132233",
"S  c #1B2434",
"D  c #1D2935",
"F  c #1A283C",
"G  c #232423",
"H  c #23242B",
"J  c #292B2B",
"K  c #232A39",
"L  c #000144",
"P  c #000847",
"I  c #00004C",
"U  c #001948",
"Y  c #000153",
"T  c #000D53",
"R  c #00015B",
"E  c #001859",
"W  c #052446",
"Q  c #1B2945",
"!  c #1B314D",
"~  c #002655",
"^  c #1D2E59",
"/  c #212D44",
"(  c #2A324B",
")  c #2B3B54",
"_  c #000063",
"`  c #00006C",
"'  c #001768",
"]  c #000074",
"[  c #00007B",
"{  c #001778",
"}  c #002669",
"|  c #1A2D61",
" . c #183566",
".. c #002979",
"X. c #193E79",
"o. c #243A67",
"O. c #293975",
"+. c #28406F",
"@. c #000084",
"#. c #00028B",
"$. c #000F8F",
"%. c #001888",
"&. c #000392",
"*. c #00009B",
"=. c #000C98",
"-. c #001898",
";. c #00248D",
":. c #003785",
">. c #002599",
",. c #00339A",
"<. c #0029A4",
"1. c #003DA4",
"2. c #0034A8",
"3. c #003AAC",
"4. c #0020B8",
"5. c #003EB2",
"6. c #0039B9",
"7. c #0C469B",
"8. c #24448A",
"9. c #0042A6",
"0. c #004AA5",
"q. c #0043AC",
"w. c #004DAC",
"e. c #1F4DA7",
"r. c #0053AE",
"t. c #0044B3",
"y. c #004BB2",
"u. c #0044BB",
"i. c #004BBB",
"p. c #0155B8",
"a. c #005ABB",
"s. c #1C5FB4",
"d. c #255EB4",
"f. c #0164BE",
"g. c #1763BA",
"h. c #3768B9",
"j. c #436AB1",
"k. c #000DCE",
"l. c #0024C6",
"z. c #0037C5",
"x. c #0029D6",
"c. c #0035D7",
"v. c #0046C7",
"b. c #005DC3",
"n. c #0059C8",
"m. c #004ED2",
"M. c #005BD3",
"N. c #0056D9",
"B. c #0063C5",
"V. c #056ACA",
"C. c #166DC9",
"Z. c #0069D8",
"A. c #0476DD",
"S. c #3B6EC6",
"D. c #2970CF",
"F. c #3576CA",
"G. c #2975D5",
"H. c #0049EA",
"J. c #005BE9",
"K. c #0069EB",
"L. c #0076F6",
"P. c #4C79C9",
"I. c #447DD1",
"U. c #1982DA",
"Y. c #2B82D9",
"T. c #3388D8",
"R. c #1787EE",
"E. c #0089F8",
"W. c #318CF2",
"Q. c #5783CE",
"!. c #4A86D6",
"~. c #5587D7",
"^. c #5A93DE",
"/. c #6684C5",
"(. c #658DD3",
"). c #6C93D5",
"_. c #6693DA",
"`. c #769CDC",
"'. c #4790ED",
"]. c #5796E7",
"[. c #589AF7",
"{. c #6399EA",
"}. c #749DE4",
"|. c #7C9FE0",
" X c #4FA4F8",
".X c #66A1EF",
"XX c #76A5E7",
"oX c #68A7F5",
"OX c #74A6F2",
"+X c #7DB7FB",
"@X c #85ABE6",
"#X c #84ACEA",
"$X c #93AFE9",
"%X c #87B5EA",
"&X c #86B2EC",
"*X c #8AB3EC",
"=X c #94B6EB",
"-X c #87AFF5",
";X c #87B6F8",
":X c #95BCF4",
">X c #99BDF6",
",X c #99C4F8",
"<X c #A5C4F5",
"1X c #A9C7F4",
"2X c #A3C6FA",
"3X c #A4CCFB",
"4X c #ACCDF9",
"5X c #B2CBF7",
"6X c #AAD2FB",
"7X c #B3D3FB",
"8X c #BBD6FC",
"9X c #B5DBFF",
"0X c #BDDBFE",
"qX c #BCE0FF",
"wX c #C5D9FA",
"eX c #C2DDFF",
"rX c #C5E2FF",
"tX c #CBE5FF",
"yX c #CEEAFF",
"uX c #D2E6FF",
"iX c #D4ECFF",
"pX c #D9EEFF",
"aX c #D6F0FF",
"sX c #DCF2FF",
"dX c #E3F4FF",
"fX c #E9F7FF",
"gX c #ECFAFD",
"hX c #F5FDFD",
"jX c #FBFFFD",
/* pixels */
"                                                                                                                                ",
"                                                                                                                                ",
"                                                                                                                                ",
"                                                                                                                                ",
"                                                                                                                                ",
"                                                                                                                                ",
"                                                                                                                                ",
"                                                    X   X X X X X X   X X                                                       ",
"                                                X $ % = : < < < < < < < ; % % X                                                 ",
"                                          X X % = + 4 3 $ i k l k i t X o 4 4 ; = $ X X                                         ",
"                                        X % d # 4 Y @.3.Q.).).).).).).(.0.] _ & 4 > = X X                                       ",
"                                .   X $ p , o ] 5._.7X9XrXtXtXrXtXwXtXtX9X5X1XV.-.L 4 : = X X                                   ",
"                                  X = s q ` p.*XpXrX,X<XF.q.0.9.9.9.q.a.*X<X9XaXuX!.&.L q y % X                                 ",
"                              X X u 6 P >.XXaXpX&XV.[ _ k 3 O O O O O - R ] 3._.9XaX8X!.] w a & X X                             ",
"                            X $ p e ] C.tXpX=Xa.] i q 6 s p p p p p d p , e # Y =.^.wXdX:X2.U 2 = X X                           ",
"                          X $ d w $.OXiX8XB.` * 6 ; ; % X X X X X X X X % = p g 5 I *.}.pX8Xb.L 2 = X                           ",
"                        X % d G -.5XdX{.$.n 8 a % $ X X     X   X     X X $ % ; d c J { n.8XrXB.Y 7 = X                         ",
"                        X p w -.2XgXI._ 0 a y % X X                     X X $ = d F l P ^ v.7XyXZ.P > % X                       ",
"                      X u q #.*XfXI.Y e p % X X X       .             X X $ = d C } P.Q.:.o.5.7XrXp.n p % X                     ",
"                    X = 2 _ ].aX~.R w y $ X X   .               . X $ $ % ; d W ^ n.dXuX3.) | 6.8X6X<.q p X                     ",
"                  X $ s l V.pX#X[ r u $ X                     X X X $ = p g B / #.-XhX;Xk.;. .^ n.yX&X] 6 = X                   ",
"                  X = 9 #.7XtX2.e d $ X X             X X X X X % ; d x Z ' 2.d.A.8XhX,X5X>X0.K [ XXaXB.u a X                   ",
"                  % < L ~.dXT.I h = X X X X X X X X $ = % $ % = u j x z E !.rXtXuXjXfXuX3XXX7.x K 3.qX1X#.6 % X                 ",
"                X p @ &.6X4X&.e u $ $ % p p = X $ = : 4 9 f x d Z ..n.I.6.(.:XR.oXhX.Xz.$.Y f x A _ ].dXd.  s X                 ",
"                X d . B.iX!.I s ; = a +     : y u 7 L [ ` v a Q ;.].yXyX4Xi.1.c.;XuXm.( D S d d d U d.OXa.z = X                 ",
"              X % , R =X0Xq.< d p x d %.P.r.R C D @.^.wX5XV.w.} G.yXoX+XyXf.1.Z.iX<X&.D x d d x C J [ _.2X..o = X               ",
"              X y 0 @.8X:X` H x c W t.1XuXrX].} >.OXyX;XtXdX2X-.~.yX XW.'.z.G.0XhX'.' g d d b K U *.#XsX@X' < = X               ",
"              X a t h.0X_.I A b F 5.7X0XL.7X7Xl..XaX{.x. XjX-X1.v.,XdX+XK.;XsX,XuXP.T v x Z F [ D.eXtXT.v.X.d =                 ",
"              X h l |.rX5.w U / &.:XpXJ.E.pX-XL.pX-X<.u.2XiXK.u.-X+X XgXdXrX[.W.pXS.~ ^ / ` 2.@XrX5Xb.u.7XQ.t : X               ",
"            X X h I `.0Xq.S W ~ G.pX X[.aX,XH.,XuXn.O.M.pX,Xc.].pXE.<XsXgX[.k.*XdXM.O.{ <.~.0XiX_.*./ w.tX(.k h $               ",
"            X $ < Y |.rXt.Q ! ;.OXsX6XiX;XN.K.sX>X1.3.-XjXR.J.tX,X,XiXE.tX8X4.].dXOXZ.XX9XpX:Xi._ ( Q w.eX(.i a X               ",
"              X h I |.eXt.)  .N.0XjX8XR.v.m.8XjX.Xl.W.iXfXoX7X3X,XqXK.J.tX:X>.9.-XyXtXrX1XC.@.Q F U Q y.tX(.L h X               ",
"            X X h I |.eXq.X.M.wXjXoXN.e.z.2XtX0X6XW.pX;X+XpX3XL.yX'.c..XpXG.} ^ %.h.P.r.@.U D b x W S w.rX(.L > X X             ",
"              X a k j.}.,.Z.eX6XpXoXc.N.4XiXA.!.pXuX*X5.q.b.y.M.yX6X+XyXOX%.A x 2   . . w s d a d b S w.rX_.k > X               ",
"            X X = c W #.A.tX3XH.2XdX>X0XeXD.....s.h.] D A n F ..~.wXwX_.%.S d = = a h a = = % % y x K u.tX).k < X               ",
"              X = A ' Y.iX,Xv.8.b.>X7X*Xu.' F A X   8 p d f z M I @.[ I N u $ X X X X X X X X X = V Y `.0Xg.X = X X             ",
"              X a i S.aX,X6.o.W W [ #.] K A d p p a = % % % % ; : 4 @ : = X X     X       X X $ y G ] 1X4X@.9 = X               ",
"              X a $ /.,Xz.+.~ W x G e N d = = $ X $ X X . X X X % & % $ X           .       X X y w $.7X<X_ 9 &                 ",
"              X % < ~ n.}.0.C x d d p = = % $ X   X X     X   X X                           X X f t C.pX`.k , X                 ",
"                X d   s.pX]._ M p = = X X   X   X                                         X $ = 7 ` %XtX2.4 = X                 ",
"                X = 6 [ :XuX1.H x = $ X X X .                                           X X % s j b.pX@X_ @ % X                 ",
"                  $ s X a.iX%X] H y $ X                     .                         X X $ p e @.>XtX1.+ p X                   ",
"                  X % 8 _ XXdXG.E c = X X     X                                     . X $ = V R U.sX}.I 2 % X                   ",
"                    X y e #.1XtXi.H f = $ X           .                             X $ ; x 5 v.rX<X#.4 = X                     ",
"                    X $ d m 3.tX7X=.r f ; X X                                 X X X $ = f J -.4XpXy.- ; X X                     ",
"                    . X % h L P.dX>X-.5 B p $ X X X                     . X   X % % u V H *.,XiXD.l < $ X                       ",
"                        X & 8 R ~.dX6Xt.I e f = % X X X . X         . X X X X $ ; f r P p.4XiXF.I , % X                         ",
"                        X X = G _ I.iXrXY.[ H V f ; % $ $ X X X X X X $ X % p f V B @.A.tXtXF.R 8 &   X                         ",
"                          X X = 8 l q.,XfX*Xu._ 1 5 s p p = = % % = = p d s 8 1 _ a.:XpX4Xu.L , & X                             ",
"                            X X = h 3 -.XXaXyXXXp.@.T : @ 8 < 7 8 N 8 # * I [ a.XXyXpX}.&.5 < % X   .                           ",
"                              X X % p w Y b.1XdXyX,XG.f.1.` R Y Y Y _ >.f.T.>XyXpX=Xt.Y 9 = $ X X                               ",
"                                  X X y 5 g ] j.$X8XpXyX0X%X&X*X%X%X%X6XyXsX0X@Xa._ + , y X X                                   ",
"                                    X X % d 9 & I ,.P.F.=XwXwX8X8XeXwX=XF.P.,.I - 6 ; X X X                                     ",
"                                        X X & : w +   & _ @.#.#.$.@.#.] t   O 5 ; % X X                                         ",
"                                          X X X $ = a a @ 4 4 4 4 3 4 @ a ; = X X X                                             ",
"                                                  X X X $ = = = = = & % X X X                                                   ",
"                                                          X   X X   X                                                           ",
"                                                                                                                                ",
"                                                                                                                                ",
"                                                                                                                                ",
"                                                                                                                                ",
"                                                                                                                                ",
"                                                                                                                                ",
"                                                                                                                                "
};
