/* XPM */
static char *out[] = {
/* columns rows colors chars-per-pixel */
"64 64 210 2 ",
"   c #000100",
".  c #020B02",
"X  c #070008",
"o  c #0A000B",
"O  c #021403",
"+  c #021B03",
"@  c #08160E",
"#  c #071C09",
"$  c #0B1D0D",
"%  c #120013",
"&  c #1A001B",
"*  c #1D0C1D",
"=  c #0F1E10",
"-  c #161417",
";  c #131D14",
":  c #1B151C",
">  c #171E18",
",  c #1C1C1D",
"<  c #022304",
"1  c #012C02",
"2  c #052509",
"3  c #0A250D",
"4  c #052A09",
"5  c #0B2A0E",
"6  c #003302",
"7  c #003C01",
"8  c #06300B",
"9  c #0B350F",
"0  c #053B0B",
"q  c #0E2611",
"w  c #0E2911",
"e  c #132214",
"r  c #132B15",
"t  c #172418",
"y  c #1C221D",
"u  c #152C18",
"i  c #1B2B1D",
"p  c #0D3C12",
"a  c #133517",
"s  c #1B341D",
"d  c #153A19",
"f  c #1E0220",
"g  c #1F1C20",
"h  c #230323",
"j  c #230E23",
"k  c #221423",
"l  c #231B24",
"z  c #291529",
"x  c #271C28",
"c  c #1F2320",
"v  c #1F2821",
"b  c #1F3A21",
"n  c #242325",
"m  c #232A24",
"M  c #282529",
"N  c #29272A",
"B  c #223A24",
"V  c #273A29",
"C  c #293C2C",
"Z  c #2E3A30",
"A  c #004400",
"S  c #004C00",
"D  c #004709",
"F  c #005500",
"G  c #005C01",
"H  c #0B4514",
"J  c #15471A",
"K  c #006300",
"L  c #006D00",
"P  c #007100",
"I  c #007B00",
"U  c #13751F",
"Y  c #1C4920",
"T  c #224325",
"R  c #234C26",
"E  c #255C29",
"W  c #354B37",
"Q  c #2B6F31",
"!  c #008300",
"~  c #008C00",
"^  c #00810C",
"/  c #009200",
"(  c #009B00",
")  c #00940D",
"_  c #008A18",
"`  c #009217",
"'  c #019B1C",
"]  c #00A400",
"[  c #00AC00",
"{  c #00A208",
"}  c #00B300",
"|  c #00BA00",
" . c #0E9F23",
".. c #179C27",
"X. c #2A9D35",
"o. c #0EAA27",
"O. c #1FB132",
"+. c #24AF31",
"@. c #2AA837",
"#. c #32A83C",
"$. c #00C700",
"%. c #00D200",
"&. c #00DD00",
"*. c #1CCC35",
"=. c #2BCA39",
"-. c #0FE232",
";. c #39A943",
":. c #3AB745",
">. c #459A4B",
",. c #4D9E51",
"<. c #43A74B",
"1. c #40B94B",
"2. c #4FA055",
"3. c #54A258",
"4. c #54AC5A",
"5. c #4ABA54",
"6. c #55B15B",
"7. c #59B45F",
"8. c #53BB59",
"9. c #5BB462",
"0. c #5CBC63",
"q. c #63AB67",
"w. c #65BB6B",
"e. c #69B96D",
"r. c #6CAF70",
"t. c #6FBC74",
"y. c #73BB78",
"u. c #3AC346",
"i. c #3AD949",
"p. c #48CC53",
"a. c #55C65C",
"s. c #49D954",
"d. c #54DB5A",
"f. c #5BC462",
"g. c #66C26C",
"h. c #63CB6A",
"j. c #68C96E",
"k. c #62D36B",
"l. c #6DC372",
"z. c #6CCC74",
"x. c #72C378",
"c. c #79C27D",
"v. c #75CB7C",
"b. c #79CC7F",
"n. c #6CD873",
"m. c #73D17A",
"M. c #79D57E",
"N. c #58E461",
"B. c #6DE773",
"V. c #6CE376",
"C. c #7EC483",
"Z. c #7DCE81",
"A. c #7ED385",
"S. c #7DDD84",
"D. c #7DE483",
"F. c #83BC87",
"G. c #81C585",
"H. c #82CB86",
"J. c #85CD8A",
"K. c #85D58A",
"L. c #97CD9A",
"P. c #8DD691",
"I. c #8EDA93",
"U. c #93D297",
"Y. c #96D39A",
"T. c #95DB99",
"R. c #9BDA9E",
"E. c #85E78B",
"W. c #8DEB91",
"Q. c #95E29A",
"!. c #9BD4A0",
"~. c #9FDCA3",
"^. c #A2DDA5",
"/. c #A9DEAC",
"(. c #9DE4A2",
"). c #A2E5A6",
"_. c #A3EAA6",
"`. c #AAE1AD",
"'. c #A5EAA9",
"]. c #AAEAAC",
"[. c #AEE5B1",
"{. c #ADEAB2",
"}. c #B2E5B5",
"|. c #B2EBB5",
" X c #B7E5B8",
".X c #B6EBB9",
"XX c #BBEBBE",
"oX c #B6F3B9",
"OX c #BBF2BD",
"+X c #BEEAC1",
"@X c #BEF3C1",
"#X c #C1EDC4",
"$X c #C1F3C4",
"%X c #C6F5C9",
"&X c #CAF5CC",
"*X c #C5F8C8",
"=X c #CAF9CE",
"-X c #CEFAD1",
";X c #D3F6D5",
":X c #D2FBD4",
">X c #D8F4D9",
",X c #D7FDD9",
"<X c #DAFDDC",
"1X c #DEFEE1",
"2X c #E2F7E3",
"3X c #E3FDE4",
"4X c #E7FFE8",
"5X c #EAFEEB",
"6X c #F3FEF4",
"7X c #FCFFFC",
/* pixels */
"                                                                                                                                ",
"                                                                                                                                ",
"                                                                                                                                ",
"                                                                                                                                ",
"                                                                                                                                ",
"                                                                                                                                ",
"                                                                                                                                ",
"                                                      .   . .   . . .   .                                                       ",
"                                                  . . O $ $ $ # $ $ $ $ O . . .                                                 ",
"                                          . . . O = k f                 * k , + O . .                                           ",
"                                        . . + ; h + A L >.4.6.6.4.4.4.,.K 7 + & l + O . .                                       ",
"                                    . . O t j 6 I 7.`.|.-X:X:X:X=X:X:X:X|.^.L./ S & k $ . . .                                   ",
"                                  . O 2 l 1 ! j.>X<X$X.X8.( ..' ' ' ' +./.$X<X<X X( A   y + . .                                 ",
"                              . . + > $ L x.&X<XXXy.L G 1 % X X X X o < S L ( Y.%X=X/.X.1 l < O . .                             ",
"                            . . + l 7 ( XX5X+X<.G 1 x k q < < 2 < < 4 < c n ; A ! U.3X<XH.K : 3 O . .                           ",
"                        . . . + k F 0.:X&X:.K + x ; + O . . . . . . O O + + 4 v m S ~ P.3X].~ - e O .                           ",
"                        . . < l K ^.5XK.I 1 n 3 O O . .     X .   . . . O O + < 8 s V K +.%X@X/ 2 r O .                         ",
"                      . . + l G T.5Xe.S x q + . . .   .         .     . . . + < 1 0 d S G [ @X*X( < q O .                       ",
"                      . + l F A.3X9.7 M < O . .                   . . . O 2 + 4 0 J ! J.P./ ] $X$X~ y < . .                     ",
"                    . O t 6 8.1Xg.7 n + . . .   .         .   .   . . + 2 g 5 0 b I {.:X=X).I ( $X{.P k + . .                   ",
"                  . . # e ( <XT.F M + . .         X           . . O + 4 p G F Y K v.1X| k.-X/ T [ =XA.S y + .                   ",
"                  . + k K }.;X! n < O . .       .     . . . . . O + 4 9 _ '.6.R ~ $X'.~ Z.&X~ Z F A.<X' @ # .                   ",
"                  . q . 6.3X8.6 t O .         .       . . . O + 3 s C G z.<X| L 1.3XJ.( ].XXL s V ~ $X[.G l + .                 ",
"                . O , G }.XXK M + . . . . . . . . . . . O O + 3 1 S P [ $XXX'.].Q.;X} H.:X .7 9 a A a.<Xe.. ; .                 ",
"              . . 2    .<X0.6 5 + O O O O O . + + + O # + 4 5 G ;.J.|.4X6X5X>XW.$X#X%.<XA.G C 6 4 Z ~ @X^.A k O .               ",
"                . , 6 !.&X! > < < 2 5 2 # + < , k t < 4 n i s ! |.<XoX$X2X=.] | :XB.OX_.D.a.L s 6 b G ~.<XP o O .               ",
"                O z G #X(.A m 4 5 r + r 8 6 s G P S d p K F Y P v.u.] Q.*X/ Q :.<X&XoX*X3X,Xf.6 a 9 7 <.U.F 2 + .               ",
"              . =   >.-Xw.1 a p A / 5.~ D R ~ I.&XZ.P ` ].L.F / *Xl.~ }.{.P L n.7X].*X/.| @X^.S b 0 C F :.2.O $ .               ",
"              . >   F.%X~ M D J ] oX3X$X/ ~ XX<XE.5Xk.k.7X&X! :.<X0.o.3XM.L [ >X>XoX_.~ O.-XJ.S T T L f.-X9.O e .               ",
"              . > . C.%XI b T I ].>Xs.|.] A.4X2X-.@X$X>X7Xj.! (.,X[ m.<X+.~ ).5X6X'.~ K v.&X~ W S ! ).<Xb.F u + .               ",
"              . > + H.&X! T R [ 5X'.[ [ p.<X_._.2X5X2X%X$X( ] ;XQ.[ ;X2X| z.=X|.3X[ T F v.;X] ! 5.@X1X0.I H 3 + .               ",
"            . . >   C.$XI W ~ (.<X3Xi.R.<X6XK.} s.3Xn.E.XX/ P.7XK.S.2X<XW.=XV.<XP.G T 7 #.=X;X$X3XXX{ I R.2.. $ .               ",
"              . + O Q <.E ! I.<X&.OX7XOXN.-Xf.I z.<X} ^.OX*.:X@X3X,Xa.I.>Xw.~ c.^ w 6 a S #.R.^.l.I T ~ ;Xx.O e .               ",
"              . + 5 6 d P m.6XN.V.*X2X_.%.:X8.! }.}.L 9.=X:Xb.~ e.@.F G L 7 a 1 r < # < r 1 A S 7 T b ~ *Xt.. e .               ",
"              . . 1 V L m.5XD.B.<Xd.D.>X%.<Xk.z.:X+.0 F 2.4.F x     t ; & ; + > O O O O + q y y r 0 B ~ =Xx.  e .               ",
"              . O y F z.5XI.i.;Xh.} '.&X( T.:X%X6.A u t     , < e # O + + O . O . . . . . . O + < r 1 5.-X4.  $ .               ",
"              . e . 3.5XQ./ I.:X$.M.-Xf.F L q.>.7 y + + $ = O . O . . . . .   . .   .     . . + + m A /.$XP j O .               ",
"              . ;   r._.~ Q #.$X<X-Xg.G J t     e + O . X . .   .                           . . + n G {.{.S j +                 ",
"                O = S { t.U G ..r.#.S b 1 + e $ O O . . . .                               X . . 2 ; ~ ;XU.+ , .                 ",
"              . . 3   4.<X#.J 0 + < t + O . . . .   .   X                                 . . + t 1 x.1X( % + .                 ",
"                . + , I #X#XP C d w + O . . .   .                                         . O < n ! &X[.F : O .                 ",
"                  O t + w.4Xg.A s + O . . . .   X                                     . . . + v A b.1X) . # .                   ",
"                  . + M K `.;X/ s 8 + O .                                           . X . + 4 i / :XR.7 l O .                   ",
"                  . . < m ~ $X.XI N 4 O . . .                                   .   . O + 1 M P [.-X! f + .                     ",
"                    . . e 1 ] 3XT.G N < @ . . .                               . . . O O 4 N G v.1X;.< $ . .                     ",
"                    . . + i A v.3Xj.G N < + . . . .                       .   . . . + < M F h.,Xl.7 > O .                       ",
"                      . . + n K K.<Xb.P m r 2 O O . . . .       .     . . . . O # 1 u s I H.<Xv.S g O . .                       ",
"                        . . < M K b.3X}./ A N 5 2 O . O . . . . . . . . . @ + 2 5 m 7 / .X5XA.F l O . .                         ",
"                            . < n S <.;X=X#.L 1 M y < < + O O O O + + + + 4 v c 6 I u.%X<X;.S : + .                             ",
"                          . . . < y 6 ( |.3X[.1.P A c k y r 3 e q q e c g , A I 1.].3X`.~ < g + . .                             ",
"                              . . O e > K y.;X<X|.P./ I F + + O . O 1 S P ( J.#X3XXX7.G % ; O .   .                             ",
"                                  . O 2 l 6 P x. X-X,X&X X0.6.0.7.7.0.}.-X:X:X[.9.L + k + .   .                                 ",
"                                  . . . + e k 1 F ) G.J.Q.=X,X-X:X,X=XQ.H.y.` F O & e O .                                       ",
"                                        . . + > x . + 6 G /  .'  . .) G 6 O   x e O . . .                                       ",
"                                          . . . O $ > > : o X o X   o : > ; $ O . .                                             ",
"                                              .   . . . O + + + + + + O . . .                                                   ",
"                                                .         .   . .   .                                                           ",
"                                                                                                                                ",
"                                                                                                                                ",
"                                                                                                                                ",
"                                                                                                                                ",
"                                                                                                                                ",
"                                                                                                                                ",
"                                                                                                                                "
};
