/* XPM */
static char *out[] = {
/* columns rows colors chars-per-pixel */
"64 64 240 2 ",
"   c #020000",
".  c #0B0100",
"X  c #130300",
"o  c #1B0500",
"O  c #1E0801",
"+  c #1B000E",
"@  c #1F1708",
"#  c #050413",
"$  c #180818",
"%  c #07181B",
"&  c #021D1C",
"*  c #171715",
"=  c #1B1D1B",
"-  c #230600",
";  c #2E0001",
":  c #240B00",
">  c #2B0B00",
",  c #340001",
"<  c #3D0000",
"1  c #320E00",
"2  c #360A08",
"3  c #241303",
"4  c #2C1302",
"5  c #2C1904",
"6  c #25150B",
"7  c #2C160B",
"8  c #231B0C",
"9  c #2A1A0D",
"0  c #331200",
"q  c #3C1501",
"w  c #341C03",
"e  c #3B1900",
"r  c #38160A",
"t  c #361C0C",
"y  c #270219",
"u  c #390719",
"i  c #271615",
"p  c #231A13",
"a  c #2B1D14",
"s  c #231D1B",
"d  c #381716",
"f  c #0C201D",
"g  c #19201F",
"h  c #362007",
"j  c #2A2116",
"k  c #2C2119",
"l  c #382217",
"z  c #020E23",
"x  c #011321",
"c  c #011C23",
"v  c #0B1822",
"b  c #181224",
"n  c #161B21",
"m  c #1B1B22",
"M  c #3A0A22",
"N  c #251C22",
"B  c #2A1924",
"V  c #3A1B25",
"C  c #07202B",
"Z  c #182223",
"A  c #262323",
"S  c #2C2322",
"D  c #362323",
"F  c #440000",
"G  c #4B0000",
"H  c #47070C",
"J  c #530000",
"K  c #5D0000",
"L  c #58040C",
"P  c #481705",
"I  c #441901",
"U  c #480416",
"Y  c #580617",
"T  c #471718",
"R  c #541614",
"E  c #630000",
"W  c #6B0000",
"Q  c #680D00",
"!  c #720000",
"~  c #7B0000",
"^  c #691702",
"/  c #791600",
"(  c #671B1D",
")  c #51240F",
"_  c #41261A",
"`  c #63260F",
"'  c #451B24",
"]  c #551727",
"[  c #482A26",
"{  c #573129",
"}  c #6A2F28",
"|  c #840000",
" . c #8B0000",
".. c #940000",
"X. c #9C0000",
"o. c #980B00",
"O. c #851A00",
"+. c #981700",
"@. c #A30000",
"#. c #AA0000",
"$. c #AE0C00",
"%. c #B50800",
"&. c #AC1300",
"*. c #A41800",
"=. c #AC1D00",
"-. c #B81800",
";. c #862400",
":. c #973800",
">. c #AA2400",
",. c #AD2B00",
"<. c #B62900",
"1. c #AF3900",
"2. c #B43400",
"3. c #B73700",
"4. c #BB3D00",
"5. c #CA0000",
"6. c #C62900",
"7. c #D42800",
"8. c #C13C00",
"9. c #CA3A00",
"0. c #D53600",
"q. c #E93B00",
"w. c #994107",
"e. c #A94A0F",
"r. c #BB4500",
"t. c #B44C00",
"y. c #BB4C00",
"u. c #BD5500",
"i. c #BF592B",
"p. c #B86B34",
"a. c #C64700",
"s. c #CE4400",
"d. c #C24C00",
"f. c #CE5400",
"g. c #C75A02",
"h. c #D85800",
"j. c #E24C00",
"k. c #ED5800",
"l. c #CE6300",
"z. c #CC6C00",
"x. c #D26300",
"c. c #D36703",
"v. c #DA6300",
"b. c #DA6A00",
"n. c #D87606",
"m. c #D46B1B",
"M. c #E66A00",
"N. c #F96C00",
"B. c #E77301",
"V. c #FB7700",
"C. c #D9692C",
"Z. c #DE7D27",
"A. c #D87A3B",
"S. c #E57E35",
"D. c #BD6A46",
"F. c #CD6C41",
"G. c #D87647",
"H. c #CE7755",
"J. c #E17C49",
"K. c #DD841C",
"L. c #E98308",
"P. c #F98A00",
"I. c #F3900E",
"U. c #FDAA0C",
"Y. c #DD8336",
"T. c #EE8E2B",
"R. c #EB9426",
"E. c #E78538",
"W. c #F99938",
"Q. c #DC8946",
"!. c #DD8555",
"~. c #DA9D5E",
"^. c #EE904B",
"/. c #F19645",
"(. c #E48655",
"). c #ED9755",
"_. c #FBA74F",
"`. c #FDAC5C",
"'. c #DF8B65",
"]. c #DE9268",
"[. c #E89865",
"{. c #E2946D",
"}. c #F19E6A",
"|. c #EA9C78",
" X c #F4A363",
".X c #F8A969",
"XX c #FAB668",
"oX c #EDA672",
"OX c #ECA37A",
"+X c #F5A977",
"@X c #F9B87A",
"#X c #FBC371",
"$X c #EDAE83",
"%X c #F4AB82",
"&X c #EFB28A",
"*X c #F5B484",
"=X c #FBBB83",
"-X c #F7B588",
";X c #FABB8C",
":X c #F3AD93",
">X c #FABE94",
",X c #F8B99D",
"<X c #E8B7A1",
"1X c #FCC38A",
"2X c #FCC796",
"3X c #FCC49A",
"4X c #FECC9C",
"5X c #FED798",
"6X c #FAC3A4",
"7X c #FECDA3",
"8X c #FDCCAB",
"9X c #FED3A3",
"0X c #FFD8A0",
"qX c #FED5AD",
"wX c #FEDAAC",
"eX c #FFCFB1",
"rX c #FED5B4",
"tX c #FFDCB3",
"yX c #FFD2B8",
"uX c #FFDCBC",
"iX c #FFE5B4",
"pX c #FFE3BC",
"aX c #FFEABC",
"sX c #FDD4C3",
"dX c #FFDCC1",
"fX c #FFE3C5",
"gX c #FFEBC4",
"hX c #FFE5CB",
"jX c #FFECCB",
"kX c #FFF0C5",
"lX c #FFF2CC",
"zX c #FFEED2",
"xX c #FFEFDC",
"cX c #FFF4D3",
"vX c #FFF4DB",
"bX c #FFF8D8",
"nX c #FEF3E1",
"mX c #FEFBE7",
"MX c #FDFDF2",
"NX c #FEFFFF",
/* pixels */
"                                                                                                                                ",
"                                                                                                                                ",
"                                                                                                                                ",
"                                                                                                                                ",
"                                                                                                                                ",
"                                                                                                                                ",
"                                                          .   .     .                                                           ",
"                                                  . . . . X . X X X . . .   .                                                   ",
"                                        .   . . . X O : 6 * p p p p p 6 O O o . . .                                             ",
"                                        . . . O : * c z < F J J J F F ; # c c @ : o . .                                         ",
"                                    . . . - 4 * % W ..3.!.].{.{.{.].].'.r. .! , & 6 : X . . .                                   ",
"                                  . . o 4 s y  .6.'.rXwXaXhXfXhXfXfXdXjXwX8X6Xx.=.J c 3 : X .                                   ",
"                              . . X - 5 m ~ g.@XjXaX4X6XY.d.d.d.r.y.d.c.-X8XiXzXuXZ.@.G % 4 o . .                               ",
"                            . . X > % G =.OXjXzX1XK.X.| K M u y y y y U | X.r. XwXaXeXZ. .m 3 - X .                             ",
"                          . . o 4 A | b.dXjX-Xh...J A g 7 0 4 4 7 > 0 4 = N $ W &.).fXzX*X<.U 8 - X . .                         ",
"                        . . o 0 n @. XgXrXb...2 & @ > - o o X X o X X o o : 4 8 v W <.+XzX0Xh.L 8 - .                           ",
"                      . . o 4 D #.6XvX[.&.R k 4 : X X . . . . .   . . . X X o - > a m  .M.qXiXv.E a : X .                       ",
"                      . X > n @.;XnX(.~ C 0 : o X . .     . .       .   . . X o : 1 t - E s.qXpXb.J @ O . .                     ",
"                    . . > g X.@XvXJ.! A 1 O X . . .               . . . . X X O 1 r ;.A.D./ 9.8XiXd.U 3 o . .                   ",
"                  . . > p ~ /.lX).~ Z 1 o X . .   .       .   . . . X X X o > q t ^ B.mX,X .} 6.qX9X=.m : X                     ",
"                  . X 4 H v.zX=X#.S 1 o X .               . . . . . X : > > 6 i T -.1XmXW.5.:.} v.gX*X| % > . .                 ",
"                . X : n @.9XfX9.' > O X . . .   . . . . . X X X X o - p Z l / 8.C.P.jXmX2XdX.X/ | oXkXl., 4 X .                 ",
"                . O 9 G (.zXT.! t : X . . .   . . X X X O : = g 7 1 a E  .~ Y.iXhXjXMXmXrX;XH.Q D 2.tX3X..c : .                 ",
"                . > & X.2XqX%.S > o X X . X X X o 3 * > 3 d E E G V *.[.sX}.E.1XP.XXmX/.6.| G r t E ).lXp.  7 . .               ",
"                . 4 + l.jX^.W 5 > : > : O : o o 6 ; F t L r.+X,XG.#.+XcX5XlX[.@.q.rXvXd.V d 7 > 1 r e._.c.G : X                 ",
"            . . O = W &XiXd.2 4 > 4 % p 1 1 r w J z.).1.h.uXjXtXpXV.zX@XP.jXJ.6.>XNX4Xo.B 0 > q t ' @.|.wX:.# : .               ",
"            . . : n ..yX3X| k q 0 T +.~ P 7 y i 1.rXmXP.9XjXV._.vXV.rXpXI.N.N.yXjXgX,X~ Z 1 I D W 8.1XkXoX;.7 : X               ",
"              X 6 < A.tX(.E d I d r.9XoXE :.g.O.l.vXvX`.vXU.1XjX.X0.P.jXjX@XjXuXP.pX%X~ _ _ R X.S.fXfXB.h.w.1 : X               ",
"            . X s J |.dX3.B I _ X.-XNX@X..[.zXG.9.tXwXwXMXkXzX Xq.@X4XV.jXNX7Xj.B.bX X .`  .f.;XgX>X8.a.rX!.< 6 X               ",
"            . X p E |.dX4.' ) ( M.nXxXx.&.9XMXn.h.pX;XwXxX@Xh.%.^.jX`.fXpXjXtX,.g.jX,X7.C..XiXuX!...M t.fX].F a o .             ",
"            . o p W OXdX8.{ [ %.2XNX-X@.b.vXqX0.^.bXU.0X2X5.#.E.zX#XuXuXN.7XjX2.+.%XkX5XiXpXoX,.K [ d r.fX].F 9 X .             ",
"            . X p E OXdX8.} @.+XvXvXT.%.`.NX;Xq.6XnXI.2XjXT.@XlX=X@XgXj.k.jX3X..[ +.Q.<X~.r.~ d l P u y.fX].K a X .             ",
"            . o a E |.dXy.=..XgX5XuXk.M.pXMX4X_.cX^.+.l.rXhXwX).5.8XuXV.9XpXg.H I p < J F $ a 0 > e u y.hX[.K 9 O .             ",
"              X 7 F D.|.6. XvX X`.jXW.wXtX`.kXpX)..._ ^ ,.g.3.! / J.hXzXwXx.E t : - * g @ : : O : e d r.hX].G * X .             ",
"            . . O q P #.}.cX X%.v.0XcX9Xv.=.F.i.~ l 1 4 % + * t t E u.H.,.J 9 - X X X X X O . . O w U z.iX!.F 8 X               ",
"            . X : d +. XvX|.@.{ Q u.n.2.^ k . . i > O : : > > : > a . . # 7 O X X .   . . . . X - k ! &X5X3.$ 3 X .             ",
"            . . 8 , A.lX+X@.{ I 5 + u i 4 > 7 7 - X X X . X X X o o : 6 3 X . . . .   .   . . X - N  .8X6X| v : . .             ",
"              . 6 - H.*X6.} P q 1 0 5 : : o o . . . . . . . . . . . . . . . . . .           . X : B ,.wX,X! % O .               ",
"              . X 7 < d.=Xt.e q - : O X X . . . . .   .       . .   .                     . . O 5 K Q.kXY.< 8 o .               ",
"              . . 4 # g.zX X~ a > : X X . .   . .       .                                 . X > g &.2XdX$.c : .                 ",
"                . O = | -XjXf.' e : X X . .           .                             .   . X : 5 K K.bX[.W 8 O .                 ",
"                . X 4 X y.jX1XX.D 1 o . . .   .   .                                   . X O 0 S &.9XuX>.* : X                   ",
"                . . o k W [.bX/. .l 1 o . .   .                                   . . X o 1 l | /.cX'.F s o . .                 ",
"                  . . > A ..3XgXB.Y h > X . .                                   . . . o > w Y B.kX*X .A - X .                   ",
"                  . . X 0 B %.uXpXa.] h 1 o X . . .               .     .   . . . X O > w ] s.pXgX2.b > X .                     ",
"                    . . O a G G.nX9Xs.Y j q O X o .   . .     .       . . . . X o : 0 j Y 9.9XjXc.H 6 o . .                     ",
"                      . X - s E J.vXtXv.~ k e > : X X X . . . . . . . . X X o O > w A ~ v.wXjXx.J p o . .                       ",
"                      . . . > S W G.pXaXR.@.] l e 0 : O o X X X . X o o O : 0 r _ Y #.R.gXuXm.E k - . .                         ",
"                        . . . > s G <.>XvX=Xv. .u N w 0 4 > - O : > > 0 0 w B P | b.2XlX4X8.G p - . .                           ",
"                            . X - a B o.|.gXjXXXh.+.W H i j a k a k a a H W @.x.oXgXjX{.@.' 9 - X .                             ",
"                            . . . O 4 m E g.2XvXlX2XL.l.4.| ! W W ! ~ <.l.R.2XjXjX*X3.E n : o . . .                             ",
"                              . . X X > s T ..F.:XuXzXhXtX*X$X$X$X&X@X4XjXjXpXOXg.~ i k > X . .                                 ",
"                                  . . . : 0 f < W 2.!.Y.>XdXuXdXdXdXdX>XY.H.3.E M * : o . . .                                   ",
"                                      . . X : 9 g i G K ..*.,.>.,.=.=.X.K , $ k 3 o . . .                                       ",
"                                        . . . X o : 9 3 & x x v % x x & 3 6 O o X . .                                           ",
"                                              . . . X o - : : > : : : O o X X .                                                 ",
"                                                      . . . . . . . . .   .                                                     ",
"                                                            .       .                                                           ",
"                                                                                                                                ",
"                                                                                                                                ",
"                                                                                                                                ",
"                                                                                                                                ",
"                                                                                                                                ",
"                                                                                                                                "
};
