/* XPM */
static char *out[] = {
/* columns rows colors chars-per-pixel */
"64 64 215 2 ",
"   c #010000",
".  c #080207",
"X  c #0C020B",
"o  c #10030F",
"O  c #071A0A",
"+  c #140413",
"@  c #180417",
"#  c #1C041B",
"$  c #1A0919",
"%  c #161D19",
"&  c #181919",
"*  c #20041F",
"=  c #21161F",
"-  c #1B0020",
";  c #1E1521",
":  c #240523",
">  c #290526",
",  c #250A24",
"<  c #280927",
"1  c #260129",
"2  c #2B032B",
"3  c #2C0B2B",
"4  c #30022F",
"5  c #300D2F",
"6  c #251324",
"7  c #281427",
"8  c #231D23",
"9  c #281C27",
"0  c #2C132B",
"q  c #2C1D2C",
"w  c #2E0631",
"e  c #330133",
"r  c #340C33",
"t  c #3C003C",
"y  c #3B0B3B",
"u  c #2F1730",
"i  c #341333",
"p  c #321B33",
"a  c #381937",
"s  c #381B37",
"d  c #3C123B",
"f  c #3A1B3B",
"g  c #1D2121",
"h  c #242125",
"j  c #27242B",
"k  c #2B212C",
"l  c #30232F",
"z  c #342234",
"x  c #362834",
"c  c #3B223A",
"v  c #400D3E",
"b  c #3F0041",
"n  c #3F1C40",
"m  c #440044",
"M  c #490047",
"N  c #440D42",
"B  c #4C004B",
"V  c #4A0E49",
"C  c #50004F",
"Z  c #431342",
"A  c #441A45",
"S  c #4C134B",
"D  c #4B1E4B",
"F  c #540053",
"G  c #580056",
"H  c #550855",
"J  c #5C005B",
"K  c #4F1450",
"L  c #531453",
"P  c #581B57",
"I  c #61005E",
"U  c #60195E",
"Y  c #482549",
"T  c #4C234C",
"R  c #562956",
"E  c #5B235A",
"W  c #5D305E",
"Q  c #60225F",
"!  c #650064",
"~  c #690066",
"^  c #650B64",
"/  c #6C006A",
"(  c #71006D",
")  c #681966",
"_  c #740072",
"`  c #790076",
"'  c #7B0079",
"]  c #791777",
"[  c #792478",
"{  c #81007E",
"}  c #82157F",
"|  c #850081",
" . c #890085",
".. c #8D008A",
"X. c #8B0B8A",
"o. c #91008D",
"O. c #871A86",
"+. c #901B8D",
"@. c #950091",
"#. c #990095",
"$. c #960D93",
"%. c #9E009A",
"&. c #9B1D97",
"*. c #A3009D",
"=. c #862687",
"-. c #8D318A",
";. c #9A2797",
":. c #953D97",
">. c #A2239E",
",. c #A1349C",
"<. c #A600A1",
"1. c #AB00A6",
"2. c #AF00A9",
"3. c #B200AC",
"4. c #AA18A5",
"5. c #B116AD",
"6. c #B600B2",
"7. c #BE00B6",
"8. c #9E25A2",
"9. c #AA29A5",
"0. c #B426AE",
"q. c #AB38A8",
"w. c #B234AC",
"e. c #B737B3",
"r. c #C528BE",
"t. c #C237BC",
"y. c #974C98",
"u. c #A1449C",
"i. c #A945A7",
"p. c #B244AD",
"a. c #B14CAD",
"s. c #A555A4",
"d. c #B255AE",
"f. c #B947B5",
"g. c #BD4CBA",
"h. c #B955B6",
"j. c #B36BAF",
"k. c #B261B1",
"l. c #BB65B9",
"z. c #C255BD",
"x. c #C35ABE",
"c. c #C169BE",
"v. c #C176BF",
"b. c #CD03C6",
"n. c #D41BCF",
"m. c #C92AC3",
"M. c #CD3AC7",
"N. c #C949C3",
"B. c #CA56C4",
"V. c #D459CD",
"C. c #DB4FD5",
"Z. c #D959D3",
"A. c #E34ADE",
"S. c #E458DF",
"D. c #CA64C5",
"F. c #CA68C6",
"G. c #D168CC",
"H. c #CB75C8",
"J. c #CD7DCB",
"K. c #D276CE",
"L. c #D17ACD",
"P. c #D86BD3",
"I. c #D572D1",
"U. c #D972D4",
"Y. c #DA7BD6",
"T. c #DA7CD7",
"R. c #E16FDB",
"E. c #E470DE",
"W. c #E27BDD",
"Q. c #EB78E7",
"!. c #D081CD",
"~. c #D986D5",
"^. c #DD8DDA",
"/. c #D591D2",
"(. c #D993D5",
"). c #DD93DA",
"_. c #E284DD",
"`. c #E38CDD",
"'. c #E193DD",
"]. c #E583E0",
"[. c #E68CE2",
"{. c #E98FE4",
"}. c #ED8EEA",
"|. c #E593E2",
" X c #E992E4",
".X c #E59BE2",
"XX c #EA9CE6",
"oX c #EE94EA",
"OX c #EF9DEA",
"+X c #F294EE",
"@X c #F29AEE",
"#X c #E5A3E3",
"$X c #EAA7E6",
"%X c #EEA6EA",
"&X c #EEAAEB",
"*X c #F2A4ED",
"=X c #F2ACED",
"-X c #F2B4EE",
";X c #F5A5F1",
":X c #FAA5F3",
">X c #F5ACF1",
",X c #F9AEF5",
"<X c #F5B3F2",
"1X c #FAB3F6",
"2X c #F6BBF4",
"3X c #FABBF6",
"4X c #FCB5F9",
"5X c #FDBBF9",
"6X c #F9C3F6",
"7X c #F8C9F5",
"8X c #FDC2FB",
"9X c #FDCCFA",
"0X c #FCD4FA",
"qX c #FDDBFB",
"wX c #FEE4FD",
/* pixels */
"                                                                                                                                ",
"                                                                                                                                ",
"                                                                                                                                ",
"                                                                                                                                ",
"                                                                                                                                ",
"                                                                                                                                ",
"                                                                                                                                ",
"                                                    .   . . . . . . X   X                                                       ",
"                                        .       . . X + + $ # # @ # @ @ + X X X                                                 ",
"                                        . . X o @ : , 8 g ; g 8 8 h ; % 6 > : + + X .                                           ",
"                                      . X + # 6 =   # G ! ~ / / / ~ / ! m     8 7 # + X .                                       ",
"                                  . X o # < h * G ;.f.'.=X%X&X&X&X$X-X=XF.w.,.J * 8 3 * + X                                     ",
"                              . . o @ < 9 2 ! d.'.4X4X X~.J.J.J.J.J.J.L.%X3X4X'.l._ : 6 < @ X .                                 ",
"                              X o # 3 6 G p.*X<X%Xg.;._ m b b b t t m B O.;.g.#X,X{.e.` # 0 * o X .                             ",
"                          . X + * l 2 { ).4X$X9./ m , p p p p q q p p p 3 : b J #.XX8X.Xo.t 9 * o X                             ",
"                        . X + > q t 4.=XOXq.! e k 5 3 - # # @ + @ # # : , w i l 5 ( *.'.>Xe.C l : + X .                         ",
"                      . o @ > l J J.:XJ.( : q 5 < # + X X X . . X X X o + # , 5 d d a ( L.1XG.J k : + X                         ",
"                      X + : k G F.6Xc.F j 5 , @ + X X . .   .       X . o + # < r v V R ~ D.1XB.J p * + X                       ",
"                    . + * p J L.5Xq.# z 2 # + o .   .               . . o + * < r N Y v K / x.1XB.J u # X X                     ",
"                .   X $ p t c.1Xp.v s : $ o X . .                 X X X @ , 3 r N R ( j.d.( ( c.4Xp.t 3 # X .                   ",
"                  . + , 1 8.<Xz.m s < + X X   .               . X X + * , = r V R { U.5X1Xx.] ( Y.*X@.l , + . .                 ",
"                . o - = _  X$X! k 3 + o .       .     .   . X X + @ , < K { ) E ` Y.5Xm._.3Xo.W ` ].Q./ 7 - X .                 ",
"                . @ w ; 5.8Xp.: i # + . .         .   X o o + + @ , i t i.=X>.I h.3XV.@.R.2X#.Q H i.5Xp.2 3 + .                 ",
"                X - 9 / |.$X_ 0 3 + X .   .   . X X + + # , < < 3 y Y / '. X .{ P.1X1.#.W.-X..R E _ '.#X/ 9 : X                 ",
"              . + , , >.3Xk.t p # + o X X . . o o @ * , 5 9 k y y d B *.<X_.v.t.>X].#.e.4XG./ P P B f.1Xq.3 , o .               ",
"              X @ 6 G ~.&X` c 3 - $ $ + + + $ * < p i v v ~ _ L P 9.!.&XqX7X<XA.5XU.2.&X'. .Q K S T _ XX(.m k $ X               ",
"              X , + &.1XB.B d r 3 < < < * * 3 5 s 4 t T ,.$X=X,.' Y.@X6X=X7.<.M.1XC.{.;X7.{ U S Z D J !.OX' - * X               ",
"            . o < 3 0.3Xq.M T Z y f k s d r v v { F.x.o.U.9X9X`.o.:.1.oX`.| ..^.:X}.>X}.3X`...D V S T *.<Xy.: < X               ",
"              @ 8 M ).oX .Q ~ J T ! { ( V K L @..X5X1X Xn.;XwX*X1.O.g.1Xz.[ X._.qX;X@X%XW.9XF.m A V K [ q. .Z , +               ",
"            . @ h G #X[.' -.I.u.' K.1X_.>.Q #.%X9X*XoX0XQ.5X1X6X`. .G.4X3.[ 1.7X7X+X<X1.3.1XJ.F D L W ~ g.'._ & # .             ",
"            . # 8 G #X|.{ 5.5XZ.U.1XP.2X&Xo.z.5Xn.W.3XqX3X_.b.;X.Xo.G.4X0...R.wX5X;Xw.' I.1X9.L E J { H.1XK.J 6 @ .             ",
"              # j G #X|.{ 1.2XQ.3XB.@.W.2X*.z.1Xw.o.C.3Xb.o.G.1Xf.*.-X7X6.z.;X=XqXe.P / ^.=XX.W _ 9.'.1XD.! f , + .             ",
"            . # q F #X{.{ B.9X>X_.o.4.oXOX*.T.,X4.O.B.3X9.' P.3X3.N.9X7XA.<XQ.2X~.! R I c.1XN.3.P.4XOX3./ T y : + .             ",
"            . @ 0 M s.s.%.OXqX3X0.[ r.8XV.<.>X|.@.%.#X'.' / B.5XR.<XE.{.8XI.w.).| D S D ( U.2X<X=XG.o.[ h.-.2 3 + .             ",
"            . + 1 n L | _.;X4X.X..X.W.1Xw.7.9X[.#.t.1Xh.G E  .~.2XG.' } ;.! L I A y y r f ! y.s.=.J R  .-Xl.# 0 X .             ",
"            . o : f I G.4XS.8Xf.[ ..&X{.6.%X<X>XZ.=XL./ T V Z ! | G s p # p r 9 3 , , < 3 0 # * e D T | =Xd.@ < X               ",
"            . + < e h.1XM..X>Xo.W ' '.,X;X[.%.T.2XH.~ Y y r r 9 O 6 3 < 3 , # : $ @ + + $ # < 0 r v Y ..=Xk.  6 X .             ",
"              + 8 e /.~.{ K.F.! E P ..'.^.' T J ` F p 2 < $ $ - - @ + + + X X X X . X . X + + # > a m H.;X=.@ # .               ",
"            . X # 5 ^ | O.' ! P V V A F m s y 0 & 0 , # + o . o X X X . .   . . .   .     X X $ < z J |.#XF h @                 ",
"              . + 8 - l.~.~ Y N y 3 r 9 9 , , # : # + X . . . . .     .                 . . o # r 2 &.,Xx.e ; + .               ",
"              . o 6 : c.<X@.n y 3 , , * # + o + X . . .                           .     . X + < s M J.>X{ % - X                 ",
"                X # % _ %X~.J c 3 - @ + X .   .   . .               .                 . . + - r p #.1XD.v 6 + .                 ",
"                . + , 2 e.1Xh.b a : + X .         .                                 . . + $ 2 c J ^.=X' 8 : X .                 ",
"                  X # 8 B ~.>X..p 5 # + . . .     .                               . X + # < d M e.4Xd.: < + X                   ",
"                  . + * h | >X).! x 4 @ o . .                               .   . X + @ , r c ..;X^.G k # X .                   ",
"                    X + , < w.1XG.F z 2 + + X . .                         .   . X o @ : r z | {.>X .7 > o . .                   ",
"                    . X # 9 t g.1Xc.C z 3 # + o X .   .   .     .       . . . X + $ 3 a a ' [.>X#.2 0 + X                       ",
"                      X X - 9 m g.1XH.I z i , $ + X X . . . . . .   . . . o + $ , r s m *.=X,X#.2 u @ X .                       ",
"                        . X * 9 m q.;X~. .e z 3 < $ + + o o o X X + + + + @ , 4 a i J f.1X|.$.e 0 @ X X                         ",
"                          . + # p 2 #.%X%Xq.! r q r < , - # $ $ # # # : < i i l m +.I.,XL./ , 0 # o X                           ",
"                            . o # 0 2 ' ^.8X).&./ t 2 p z q q q q k l z e 2 B { z.<X-Xa.m h 3 @ X X                             ",
"                            . . X @ < & J h.%X4X$Xg.s._ G B m B B M B C =.s.D.=X1XP. .4 q : + X .                               ",
"                                . X @ , 9 1 _ h._.3X1XoX).(./.(.(.(.(.).*X2X1XH.:.F g 3 # + X                                   ",
"                                  . X + : 6 8 X G @.4.^.#X.X.X.X.X.X.X.XF.#. .m . 9 > @ o X .                                   ",
"                                      X X @ # 0 7 O 6 m F G G J I J G B v & & 7 < @ o . .                                       ",
"                                          . X + # : < 8 g h 9 j k 9 h h 6 > * @ o . . .                                         ",
"                                            .   X o + @ # # # # # # # # + + X X .                                               ",
"                                                    . X X X X X X X X X . . .                                                   ",
"                                                              . .                                                               ",
"                                                                                                                                ",
"                                                                                                                                ",
"                                                                                                                                ",
"                                                                                                                                ",
"                                                                                                                                "
};
